<svg width="116" height="116" viewBox="0 0 116 116" fill="none" xmlns="http://www.w3.org/2000/svg">
<g clip-path="url(#clip0_1294_3704)">
<path d="M48.333 62.8332C48.333 65.3969 49.3515 67.8557 51.1643 69.6685C52.9772 71.4814 55.4359 72.4998 57.9997 72.4998C60.5634 72.4998 63.0222 71.4814 64.835 69.6685C66.6479 67.8557 67.6663 65.3969 67.6663 62.8332C67.6663 60.2694 66.6479 57.8107 64.835 55.9978C63.0222 54.185 60.5634 53.1665 57.9997 53.1665C55.4359 53.1665 52.9772 54.185 51.1643 55.9978C49.3515 57.8107 48.333 60.2694 48.333 62.8332Z" stroke="#092167" stroke-width="2.75" stroke-linecap="round" stroke-linejoin="round"/>
<path d="M38.667 101.5V96.6667C38.667 94.1029 39.6854 91.6442 41.4983 89.8313C43.3111 88.0185 45.7699 87 48.3337 87H67.667C70.2308 87 72.6895 88.0185 74.5024 89.8313C76.3152 91.6442 77.3337 94.1029 77.3337 96.6667V101.5" stroke="#092167" stroke-width="2.75" stroke-linecap="round" stroke-linejoin="round"/>
<path d="M72.5 24.1667C72.5 26.7304 73.5185 29.1892 75.3313 31.002C77.1442 32.8149 79.6029 33.8333 82.1667 33.8333C84.7304 33.8333 87.1892 32.8149 89.002 31.002C90.8149 29.1892 91.8333 26.7304 91.8333 24.1667C91.8333 21.6029 90.8149 19.1442 89.002 17.3313C87.1892 15.5184 84.7304 14.5 82.1667 14.5C79.6029 14.5 77.1442 15.5184 75.3313 17.3313C73.5185 19.1442 72.5 21.6029 72.5 24.1667Z" stroke="#092167" stroke-width="2.75" stroke-linecap="round" stroke-linejoin="round"/>
<path d="M82.167 48.3335H91.8337C94.3974 48.3335 96.8562 49.3519 98.669 51.1648C100.482 52.9777 101.5 55.4364 101.5 58.0002V62.8335" stroke="#092167" stroke-width="2.75" stroke-linecap="round" stroke-linejoin="round"/>
<path d="M24.167 24.1667C24.167 26.7304 25.1854 29.1892 26.9983 31.002C28.8111 32.8149 31.2699 33.8333 33.8337 33.8333C36.3974 33.8333 38.8562 32.8149 40.669 31.002C42.4819 29.1892 43.5003 26.7304 43.5003 24.1667C43.5003 21.6029 42.4819 19.1442 40.669 17.3313C38.8562 15.5184 36.3974 14.5 33.8337 14.5C31.2699 14.5 28.8111 15.5184 26.9983 17.3313C25.1854 19.1442 24.167 21.6029 24.167 24.1667Z" stroke="#092167" stroke-width="2.75" stroke-linecap="round" stroke-linejoin="round"/>
<path d="M14.5 62.8335V58.0002C14.5 55.4364 15.5184 52.9777 17.3313 51.1648C19.1442 49.3519 21.6029 48.3335 24.1667 48.3335H33.8333" stroke="#092167" stroke-width="2.75" stroke-linecap="round" stroke-linejoin="round"/>
</g>
<defs>
<clipPath id="clip0_1294_3704">
<rect width="116" height="116" fill="white"/>
</clipPath>
</defs>
</svg>
